# xmcd CD database file
# Copyright (C) 1993-1997  Ti Kan
#
# Track frame offsets:
#	150
#	13510
#	32397
#	43065
#	75982
#	96182
#	118927
#	130612
#	158415
#	174390
#	182287
#	194802
#
# Disc length: 2897 seconds
#
# Revision: 2
# Processed by: cddbd v1.4b41PL1 Copyright (c) Steve Scherf et al.
# Submitted via: xmcd 2.2 PL0
#
DISCID=870b4f0c
DTITLE=Sarah Vaughan - Embraceable You
DYEAR=1900
DGENRE=
TTITLE0=Embraceable You
TTITLE1=Scat Blues
TTITLE2=Lover Come Back To Me
TTITLE3=Round Midnight
TTITLE4=Sassy's Blues
TTITLE5=Misty
TTITLE6=Just One Of Those Thing
TTITLE7=Alfie
TTITLE8=What Now My Love
TTITLE9=I Had A Ball
TTITLE10=The Theme
TTITLE11=Lover Man
EXTD=(C) 1996 Delta Music, Inc\nLaserlight 17 110\n\nSarah Vaughan: voca
EXTD=ls\nBob James: piano\nHerb Minkman: bass\nOmar Clar: drums
EXTT0=
EXTT1=
EXTT2=
EXTT3=
EXTT4=
EXTT5=
EXTT6=
EXTT7=
EXTT8=
EXTT9=
EXTT10=
EXTT11=
PLAYORDER=
